<svg width="507" height="84" viewBox="0 0 507 84" fill="none" xmlns="http://www.w3.org/2000/svg">
    <path d="M186.895 71.5065L163.212 16.7489L150.83 45.3757H169.658L174.02 56.582H145.983L134.558 82.9977H122.624L155.187 7.71052C158.277 0.565276 168.146 0.56521 171.236 7.71052L196.861 66.9552C197.501 68.4358 198.93 69.39 200.507 69.39C202.126 69.39 202.687 68.9581 202.898 68.7636C203.207 68.4788 203.647 67.8473 203.996 66.4459C204.611 63.9785 204.57 61.0848 204.523 57.8012C204.51 56.8926 204.497 55.9494 204.497 54.982C204.497 41.0144 214.556 29.3665 229.424 29.3676C244.29 29.3687 254.35 41.0136 254.35 54.982V82.9977H243.445V54.982C243.445 46.8465 237.926 40.5745 229.423 40.5739C220.921 40.5732 215.402 46.8457 215.402 54.982C215.402 55.5251 215.414 56.1593 215.427 56.8625C215.49 60.2137 215.581 65.1319 214.56 69.2274C213.899 71.8791 212.653 74.8259 210.179 77.106C207.607 79.4766 204.287 80.5963 200.507 80.5963C194.62 80.5963 189.286 77.034 186.895 71.5065Z" fill="#EEEEEE"/>
    <path d="M303.425 40.573H277.719V53.3798C277.719 63.3928 280.139 67.2568 282.41 69.0296C285.046 71.0879 289.172 71.7901 295.635 71.7901C300.911 71.7901 305.41 70.0731 308.514 67.26C311.541 64.5156 313.551 60.4626 313.551 54.9807C313.551 54.443 313.567 53.9092 313.599 53.3798H313.551V2.95151H324.457V33.7998C328.451 31.0019 333.279 29.3663 338.478 29.3663C346.828 29.3663 353.38 32.0036 357.739 37.1535C361.976 42.1594 363.405 48.6815 363.405 54.9807V82.9964H352.499V54.9807C352.499 50.2279 351.404 46.7444 349.511 44.5077C347.739 42.4149 344.555 40.5726 338.478 40.5726C330.734 40.5726 324.457 47.0233 324.457 54.9807C324.457 63.5658 321.183 70.719 315.728 75.6641C310.348 80.5406 303.162 82.9964 295.635 82.9964C289.192 82.9964 281.634 82.4979 275.812 77.9524C269.625 73.1216 266.813 64.9789 266.813 53.3798V40.573H257.257C255.085 36.1514 251.945 32.3178 248.122 29.3667H266.813V2.95151H277.719V29.3667H303.425V40.573Z" fill="#EEEEEE"/>
    <path fill-rule="evenodd" clip-rule="evenodd" d="M460.198 37.624C464.596 32.4525 470.986 29.3663 478.691 29.3663C485.841 29.3663 491.617 31.4047 495.828 35.2738V26.965H506.734V82.9964H495.828V75.5341C491.409 80.0824 485.422 82.9964 478.691 82.9964C464.6 82.9964 453.764 70.2236 453.764 56.4215C453.764 49.4495 455.874 42.7073 460.198 37.624ZM468.409 44.9985C466.096 47.7184 464.67 51.7023 464.67 56.4215C464.67 64.7232 471.272 71.7901 478.691 71.7901C486.11 71.7901 492.712 64.7232 492.712 56.4215C492.712 51.2444 491.617 47.3353 489.652 44.8149C487.862 42.5197 484.724 40.5726 478.691 40.5726C473.995 40.5726 470.648 42.3668 468.409 44.9985Z" fill="#EEEEEE"/>
    <path d="M456.092 33.9372C457.559 32.2134 459.199 30.6836 460.992 29.3675L448.701 29.3679C442.122 29.368 435.51 31.131 430.48 35.7306C425.339 40.4322 422.606 47.404 422.606 56.183C422.606 64.8035 415.806 71.7917 407.416 71.7917H394.174C389.248 71.7917 385.561 70.5725 383.164 68.4217C380.902 66.3919 378.984 62.8084 378.984 56.183C378.984 49.8987 380.644 46.2735 382.795 44.1662C384.994 42.0125 388.593 40.573 394.174 40.573C400.577 40.573 403.475 42.2018 404.84 43.6424C406.12 44.9923 406.902 47.0667 407.013 50.188C405.971 50.4024 404.316 50.5798 401.775 50.5798L386.018 50.5798C385.587 51.7124 385.216 53.4691 385.216 56.183C385.216 58.9098 385.608 60.6598 386.066 61.786L401.775 61.7861C404.846 61.7861 407.355 61.5705 409.399 61.1243C411.413 60.6848 413.33 59.9465 414.879 58.6339C418.329 55.7113 417.976 51.5049 417.936 51.0234L417.932 50.9801C417.932 45.9004 416.807 40.2049 412.652 35.8224C408.477 31.4196 402.223 29.3667 394.174 29.3667C386.902 29.3667 380.18 31.2459 375.271 36.0548C370.314 40.9101 368.079 47.8915 368.079 56.183C368.079 65.1664 370.782 72.1888 375.991 76.8628C381.065 81.4157 387.7 82.998 394.174 82.998H407.416C421.828 82.998 433.512 70.9925 433.512 56.183C433.512 49.8665 435.4 46.2324 437.73 44.102C440.171 41.8695 443.88 40.5742 448.702 40.5742L451.792 40.5741C452.931 38.2086 454.36 35.9747 456.092 33.9372Z" fill="#EEEEEE"/>
    <path d="M33.9642 53.9129C33.7674 49.1281 33.8748 44.0624 34.4835 38.9687C35.8388 27.6262 40.9085 14.4729 45.5653 4.2818C46.7821 1.61889 42.7475 -1.29517 40.6658 0.772689C30.4761 10.8947 21.9957 22.5824 15.5512 35.3858L15.3358 35.8137C9.14765 48.1079 4.63691 61.1666 1.9228 74.6449L0.230469 83.0489H26.8106L28.7648 73.3444C30.0909 66.7589 31.8283 60.2693 33.9642 53.9129Z" fill="white"/>
    <path d="M67.0152 83.0489H105.553C105.553 83.0489 98.6023 61.2785 101.268 38.9687C102.624 27.6262 107.693 14.4729 112.35 4.2818C113.567 1.61889 109.532 -1.29517 107.451 0.772689C97.2608 10.8947 88.7805 22.5824 82.336 35.3858L82.1206 35.8137C75.9324 48.1079 71.4217 61.1666 68.7076 74.6449L67.0152 83.0489Z" fill="white"/>
    <path d="M67.3566 53.9129C67.1598 49.1281 67.2672 44.0624 67.8758 38.9687C69.2312 27.6262 74.3008 14.4729 78.9577 4.2818C80.1745 1.61889 76.1398 -1.29517 74.0581 0.772689C63.8685 10.8947 55.3881 22.5824 48.9436 35.3858L48.7282 35.8137C42.54 48.1079 38.0293 61.1666 35.3152 74.6449L33.6228 83.0489H60.2029L62.1572 73.3444C63.4833 66.7589 65.2207 60.2693 67.3566 53.9129Z" fill="white"/>
    </svg>
    