<svg width="315" height="57" viewBox="0 0 315 57" fill="none" xmlns="http://www.w3.org/2000/svg">
<path d="M85.9091 5.7H80.1818V17.1022L74.4545 17.1028L74.4552 22.8028L80.1818 22.8022V34.2C80.1818 43.6441 87.8744 51.3 97.3636 51.3H103.091V45.6H97.3636C91.0375 45.6 85.9091 40.496 85.9091 34.2V22.8016L97.3864 22.8003L97.3858 17.1003L85.9091 17.1016L85.9091 5.7Z" fill="#FFC700"/>
<path d="M5.72727 17.1H0V34.2C0 43.6441 7.69256 51.3 17.1818 51.3C26.6711 51.3 34.3636 43.6441 34.3636 34.2V17.1H28.6364V34.2C28.6364 40.496 23.508 45.6 17.1818 45.6C10.8556 45.6 5.72727 40.496 5.72727 34.2V17.1Z" fill="#FFC700"/>
<path fill-rule="evenodd" clip-rule="evenodd" d="M137.455 34.2C137.455 43.6441 129.762 51.3 120.273 51.3C110.783 51.3 103.091 43.6441 103.091 34.2C103.091 24.7559 110.783 17.1 120.273 17.1C129.762 17.1 137.455 24.7559 137.455 34.2ZM131.727 34.2C131.727 40.496 126.599 45.6 120.273 45.6C113.947 45.6 108.818 40.496 108.818 34.2C108.818 27.904 113.947 22.8 120.273 22.8C126.599 22.8 131.727 27.904 131.727 34.2Z" fill="#FFC700"/>
<path d="M40.0909 34.2C40.0909 24.7559 47.7835 17.1 57.2727 17.1C66.762 17.1 74.4545 24.7559 74.4545 34.2V51.3H68.7273V34.2C68.7273 27.904 63.5989 22.8 57.2727 22.8C50.9466 22.8 45.8182 27.904 45.8182 34.2V51.3H40.0909V34.2Z" fill="#FFC700"/>
<path d="M160.364 17.1C150.875 17.1 143.182 24.7566 143.182 34.2V51.3H148.909V34.2C148.909 27.9044 154.038 22.8 160.364 22.8C166.689 22.8 171.818 27.9044 171.818 34.2V51.3H177.545V34.2C177.545 24.7566 169.852 17.1 160.364 17.1Z" fill="#FFC700"/>
<path fill-rule="evenodd" clip-rule="evenodd" d="M217.399 37.05C217.555 36.1232 217.636 35.171 217.636 34.2C217.636 28.2521 214.585 23.0135 209.955 19.95C207.234 18.1492 203.968 17.1 200.455 17.1C190.965 17.1 183.273 24.7559 183.273 34.2C183.273 35.171 183.354 36.1232 183.51 37.05C184.874 45.1374 191.941 51.2999 200.455 51.3H211.909V45.6H200.455C195.117 45.5999 190.633 41.9669 189.361 37.05H217.399ZM200.455 22.8C205.792 22.8 210.277 26.4331 211.548 31.35H189.361C190.632 26.4331 195.117 22.8 200.455 22.8Z" fill="#FFC700"/>
<path d="M279.491 14.25V42.75H287.613C295.09 42.75 301.15 36.3701 301.15 28.5C301.15 20.6299 295.09 14.25 287.613 14.25H279.491Z" fill="#FFC700"/>
<path fill-rule="evenodd" clip-rule="evenodd" d="M286.364 0H229.091V57H286.364C302.179 57 315 44.2401 315 28.5C315 12.7599 302.179 0 286.364 0ZM267.306 5.7H234.818V14.25H247V42.75H234.818V51.3H267.306V42.75H255.122V14.25H267.306V5.7ZM271.369 51.3V5.7H287.613C299.575 5.7 309.273 15.9079 309.273 28.5C309.273 41.0921 299.575 51.3 287.613 51.3H271.369Z" fill="#FFC700"/>
</svg>
