<svg width="199" height="38" viewBox="0 0 199 38" fill="none" xmlns="http://www.w3.org/2000/svg">
<path d="M11.5796 1.08579H1.08567V11.5797L4.88567 7.77973V4.88578H7.77962L11.5796 1.08579Z" fill="#FFFFFF"/>
<path d="M33.1142 7.77973V4.88578H30.2203L26.4203 1.08579H36.9142V11.5797L33.1142 7.77973Z" fill="#FFFFFF"/>
<path d="M30.2203 33.1143H33.1142V30.2204L36.9142 26.4204V36.9143H26.4203L30.2203 33.1143Z" fill="#FFFFFF"/>
<path d="M4.88567 30.2204V33.1143H7.77961L11.5796 36.9143H1.08567V26.4204L4.88567 30.2204Z" fill="#FFFFFF"/>
<path d="M19 0L24.9714 5.97144H21.4575L18.9999 3.51384L16.5423 5.97144H13.0286L19 0Z" fill="#FFFFFF"/>
<path d="M5.97141 16.5424L5.97141 13.0286L0 19L5.97141 24.9714L5.97141 21.4577L3.51374 19L5.97141 16.5424Z" fill="#FFFFFF"/>
<path d="M16.5423 32.0286H13.0286L19 38L24.9714 32.0286H21.4576L18.9999 34.4862L16.5423 32.0286Z" fill="#FFFFFF"/>
<path d="M32.0285 21.4576V24.9715L38 19L32.0285 13.0285V16.5424L34.4861 19L32.0285 21.4576Z" fill="#FFFFFF"/>
<path fill-rule="evenodd" clip-rule="evenodd" d="M9.77143 12.7424L12.7424 9.77147H25.2576L28.2286 12.7424V25.2576L25.2576 28.2286H12.7424L9.77143 25.2576V12.7424ZM15.7429 15.7429H22.2571V22.2572H15.7429V15.7429Z" fill="#FFFFFF"/>
<path d="M83.5084 9.49805H81.3125V13.9081L79.1167 13.9084L79.1169 16.1131L81.3125 16.1128V20.5215C81.3125 24.1744 84.2619 27.1356 87.9002 27.1356H90.096V24.9309H87.9002C85.4746 24.9309 83.5084 22.9568 83.5084 20.5215V16.1127L87.9089 16.1121L87.9086 13.9074L83.5084 13.908V9.49805Z" fill="#FFFFFF"/>
<path fill-rule="evenodd" clip-rule="evenodd" d="M103.271 20.5215C103.271 24.1744 100.322 27.1356 96.6836 27.1356C93.0454 27.1356 90.096 24.1744 90.096 20.5215C90.096 16.8686 93.0454 13.9074 96.6836 13.9074C100.322 13.9074 103.271 16.8686 103.271 20.5215ZM101.075 20.5215C101.075 22.9568 99.1091 24.9309 96.6836 24.9309C94.2582 24.9309 92.2919 22.9568 92.2919 20.5215C92.2919 18.0862 94.2582 16.1121 96.6836 16.1121C99.1091 16.1121 101.075 18.0862 101.075 20.5215Z" fill="#FFFFFF"/>
<path d="M57.1579 27.1356C60.7962 27.1356 63.7455 24.1744 63.7455 20.5215V13.9074H61.5497V20.5215C61.5497 22.9568 59.5834 24.9309 57.1579 24.9309C54.7325 24.9309 52.7662 22.9568 52.7662 20.5215V13.9074H50.5703V20.5215C50.5703 24.1744 53.5197 27.1356 57.1579 27.1356Z" fill="#FFFFFF"/>
<path d="M65.9414 20.5215C65.9414 16.8686 68.8908 13.9074 72.529 13.9074C76.1673 13.9074 79.1167 16.8686 79.1167 20.5215V27.1356H76.9208V20.5215C76.9208 18.0862 74.9545 16.1121 72.529 16.1121C70.1035 16.1121 68.1373 18.0862 68.1373 20.5215V27.1356H65.9414V20.5215Z" fill="#FFFFFF"/>
<path d="M112.055 13.9074C108.417 13.9074 105.467 16.8686 105.467 20.5215V27.1356H107.663V20.5215C107.663 18.0862 109.629 16.1121 112.055 16.1121C114.48 16.1121 116.447 18.0862 116.447 20.5215V27.1356H118.642V20.5215C118.642 16.8686 115.693 13.9074 112.055 13.9074Z" fill="#FFFFFF"/>
<path fill-rule="evenodd" clip-rule="evenodd" d="M134.013 20.5215C134.013 20.8971 133.982 21.2654 133.922 21.6239H123.172C123.66 23.5256 125.38 24.9309 127.426 24.9309H131.818V27.1356H127.426C124.162 27.1356 121.452 24.752 120.929 21.6239C120.869 21.2654 120.838 20.8971 120.838 20.5215C120.838 18.2206 122.008 16.1946 123.783 15.0098C124.826 14.3136 126.079 13.9074 127.426 13.9074C128.677 13.9074 129.846 14.2573 130.842 14.8649C130.882 14.8898 130.923 14.915 130.963 14.9407C130.998 14.9634 131.034 14.9864 131.069 15.0098C132.844 16.1948 134.013 18.221 134.013 20.5215ZM123.172 19.4192H131.679C131.192 17.5173 129.472 16.1121 127.426 16.1121C125.379 16.1121 123.66 17.5173 123.172 19.4192Z" fill="#FFFFFF"/>
<path d="M186.24 9.50586H184.045V11.6873H186.24V9.50586Z" fill="#FFFFFF"/>
<path d="M184.045 13.8688H186.24V26.9577H184.045V13.8688Z" fill="#FFFFFF"/>
<path d="M188.435 20.4133C188.435 16.7989 191.384 13.8688 195.021 13.8688H198.314V16.0503H195.021C192.596 16.0503 190.63 18.0037 190.63 20.4133C190.63 22.8229 192.596 24.7763 195.021 24.7763H198.314V26.9577H195.021C191.384 26.9577 188.435 24.0277 188.435 20.4133Z" fill="#FFFFFF"/>
<path d="M143.982 16.0503C143.073 16.0503 142.336 16.7828 142.336 17.6864V26.9577H140.141V17.6864C140.141 15.578 141.861 13.8688 143.982 13.8688C145.057 13.8688 146.029 14.3076 146.726 15.0147C147.424 14.3076 148.395 13.8688 149.47 13.8688C151.592 13.8688 153.312 15.578 153.312 17.6864V26.9577H151.117V17.6864C151.117 16.7828 150.38 16.0503 149.47 16.0503C148.561 16.0503 147.824 16.7828 147.824 17.6864V21.504H145.629V17.6864C145.629 16.7828 144.892 16.0503 143.982 16.0503Z" fill="#FFFFFF"/>
<path d="M170.873 17.5665C170.873 15.5243 172.539 13.8688 174.594 13.8688H180.752V16.0503H174.594C173.752 16.0503 173.069 16.7291 173.069 17.5665C173.069 18.3312 173.642 18.9762 174.405 19.071L178.59 19.5909C180.452 19.8222 181.85 21.3952 181.85 23.26C181.85 25.3022 180.184 26.9577 178.129 26.9577H170.873V24.7763H178.129C178.971 24.7763 179.654 24.0974 179.654 23.26C179.654 22.4954 179.081 21.8504 178.318 21.7555L174.133 21.2357C172.271 21.0044 170.873 19.4314 170.873 17.5665Z" fill="#FFFFFF"/>
<path d="M155.507 13.8688V20.4133C155.507 24.0277 158.456 26.9577 162.093 26.9577C165.73 26.9577 168.678 24.0277 168.678 20.4133V13.8688H166.483V20.4133C166.483 22.8229 164.517 24.7763 162.093 24.7763C159.668 24.7763 157.702 22.8229 157.702 20.4133V13.8688H155.507Z" fill="#FFFFFF"/>
</svg>