<svg width="461" height="135" viewBox="0 0 461 135" fill="none" xmlns="http://www.w3.org/2000/svg">
    <path d="M41.1385 3.85742L3.85742 3.85742V41.1385L17.3574 27.6385V17.3574H27.6386L41.1385 3.85742Z" fill="#161414"/>
    <path d="M117.643 27.6386V17.3574H107.362L93.8619 3.85742L131.143 3.85742V41.1385L117.643 27.6386Z" fill="#161414"/>
    <path d="M107.362 117.643H117.643V107.362L131.143 93.862V131.143H93.862L107.362 117.643Z" fill="#161414"/>
    <path d="M17.3574 107.362V117.643H27.6385L41.1385 131.143H3.85742V93.862L17.3574 107.362Z" fill="#161414"/>
    <path fill-rule="evenodd" clip-rule="evenodd" d="M67.5 0L88.7143 21.2143H76.231L67.5 12.4833L58.769 21.2143H46.2857L67.5 0ZM21.2143 58.769V46.2857L6.10446e-06 67.5L21.2143 88.7143V76.231L12.4833 67.5L21.2143 58.769ZM58.769 113.786H46.2857L67.5 135L88.7143 113.786H76.231L67.5 122.517L58.769 113.786ZM113.786 76.2311V88.7143L135 67.5L113.786 46.2857V58.769L122.517 67.5L113.786 76.2311Z" fill="#161414"/>
    <path fill-rule="evenodd" clip-rule="evenodd" d="M34.7144 45.2691L45.2691 34.7144H89.7311L100.286 45.269V89.7311L89.7311 100.286H45.269L34.7144 89.7311V45.2691ZM55.9286 55.9286H79.0715V79.0715H55.9286V55.9286Z" fill="#161414"/>
    <path d="M284.263 31H276.579V46.5024L268.895 46.5034L268.896 54.2534L276.579 54.2524V69.75C276.579 82.5908 286.9 93 299.632 93H307.316V85.25H299.632C291.144 85.25 284.263 78.3105 284.263 69.75V54.252L299.662 54.25L299.661 46.5L284.263 46.502V31Z" fill="#161414"/>
    <path fill-rule="evenodd" clip-rule="evenodd" d="M353.421 69.75C353.421 82.5908 343.1 93 330.368 93C317.637 93 307.316 82.5908 307.316 69.75C307.316 56.9092 317.637 46.5 330.368 46.5C343.1 46.5 353.421 56.9092 353.421 69.75ZM345.737 69.75C345.737 78.3105 338.856 85.25 330.368 85.25C321.881 85.25 315 78.3105 315 69.75C315 61.1895 321.881 54.25 330.368 54.25C338.856 54.25 345.737 61.1895 345.737 69.75Z" fill="#161414"/>
    <path d="M192.053 93C204.784 93 215.105 82.5908 215.105 69.75V46.5H207.421V69.75C207.421 78.3105 200.54 85.25 192.053 85.25C183.565 85.25 176.684 78.3105 176.684 69.75V46.5H169V69.75C169 82.5908 179.321 93 192.053 93Z" fill="#161414"/>
    <path d="M222.789 69.75C222.789 56.9092 233.11 46.5 245.842 46.5C258.574 46.5 268.895 56.9092 268.895 69.75V93H261.211V69.75C261.211 61.1895 254.33 54.25 245.842 54.25C237.354 54.25 230.474 61.1895 230.474 69.75V93H222.789V69.75Z" fill="#161414"/>
    <path d="M384.158 46.5C371.426 46.5 361.105 56.9092 361.105 69.75V93H368.789V69.75C368.789 61.1895 375.67 54.25 384.158 54.25C392.646 54.25 399.526 61.1895 399.526 69.75V93H407.211V69.75C407.211 56.9092 396.89 46.5 384.158 46.5Z" fill="#161414"/>
    <path fill-rule="evenodd" clip-rule="evenodd" d="M461 69.75C461 71.0703 460.891 72.3647 460.681 73.625H423.063C424.769 80.3101 430.786 85.25 437.947 85.25H453.316V93H437.947C426.525 93 417.043 84.6211 415.214 73.625C415.004 72.3647 414.895 71.0703 414.895 69.75C414.895 61.6616 418.987 54.54 425.2 50.375C428.851 47.9277 433.235 46.5 437.947 46.5C442.324 46.5 446.416 47.73 449.901 49.8657C450.043 49.9531 450.185 50.042 450.325 50.1323C450.449 50.2119 450.572 50.293 450.695 50.375C456.906 54.5405 461 61.6631 461 69.75ZM423.063 65.875H452.832C451.126 59.1895 445.109 54.25 437.947 54.25C430.786 54.25 424.769 59.1895 423.063 65.875Z" fill="#161414"/>
    </svg>
    